<svg xmlns="http://www.w3.org/2000/svg" viewBox="0 0 945 945"><g fill="none" stroke-width="2"><path stroke="gray" d="M405.54 95.5q-20.69 5.25-39.41 15.45a.88.88 0 0 0-.46.74q-.5 15.6 1.33 31.1" vector-effect="non-scaling-stroke"/><path stroke="#013d61" d="m367 142.79 2.54 22.21" vector-effect="non-scaling-stroke"/><path stroke="#1b5720" d="m369.54 165 3.06 22.06a.4.4 0 0 0 .55.32q35.31-13.84 72.39-21.88" vector-effect="non-scaling-stroke"/><path stroke="#013d61" d="m445.54 165.5 27.4-4.61q.49-.08.15-.44-21.08-21.67-45.55-39.45" vector-effect="non-scaling-stroke"/><path stroke="gray" d="M427.54 121c-6.68-6.93-5.1-19.54 6.98-18.85q2.09.12 3.93-.3 18.59-4.21 34.05-4.33c12.41-.1 25.99-.48 37.25.21q30.74 1.9 60.73 11.56.43.14.56-.29" vector-effect="non-scaling-stroke"/><path stroke="#1b9481" d="m445.54 165.5.12-.29a.91.87 42.3 0 0-.05-.75q-5.09-9.21-15.87-9.58c-14.74-.5-29.93 5.27-44.31 8.38-4.99 1.07-10.6 1.05-15.89 1.74" vector-effect="non-scaling-stroke"/><path stroke="#80bce1" d="M427.54 121q-31.76 6.79-60.54 21.79" vector-effect="non-scaling-stroke"/><path stroke="#013d61" d="M457.5 117.54q20.12 19.28 38.37 40.42a1.02 1.01-21 0 0 .82.36q30.65-1.21 63.88 2.63 14.25 1.65 24.43 3.88.49.11.19-.29c-1.96-2.63-7.69-8.03-7.5-11.27q.15-2.57 2.72-2.75c6.42-.45 17.86 9.32 22.6 13.49q4.69 4.13 11.24 4.7" vector-effect="non-scaling-stroke"/><path stroke="gray" d="M614.25 168.71q1.88.99 3.94 1.62 18.73 5.74 34.45 12.96 3.44 1.58.86-1.19c-52.22-56.02-135.02-79.03-209.38-74.76q-.46.03-.09.3l13.47 9.9" vector-effect="non-scaling-stroke"/><path stroke="#80bce1" d="M614.25 168.71c-42.4-36.12-97.54-53.84-152.95-51.56q-1.89.07-3.8.39" vector-effect="non-scaling-stroke"/><path stroke="#1b5720" d="m269.75 244.29.17 2.14q.05.6.51.21c27.16-22.37 58.8-40.59 90.81-55.02a.68.68 0 0 0 .39-.71l-3.38-25.2" vector-effect="non-scaling-stroke"/><path stroke="#013d61" d="m358.25 165.71-1.79-16.46" vector-effect="non-scaling-stroke"/><path stroke="gray" d="m356.46 149.25-2.19-32.53a.31.31 0 0 0-.46-.25c-34.28 20.42-63.7 51.12-86.63 83.32a1.58 1.57-27.5 0 0-.29.91q-.24 21.97 2.86 43.59" vector-effect="non-scaling-stroke"/><path stroke="#80bce1" d="M356.46 149.25c-10.31 5.13-19.98 12.83-28.71 20.29" vector-effect="non-scaling-stroke"/><path stroke="#9ad7a0" d="M327.75 169.54q-36.88 30.95-57.48 74.48a.38.37-83.2 0 1-.26.21l-.26.06" vector-effect="non-scaling-stroke"/><path stroke="#1b9481" d="M358.25 165.71q-14.93 1.39-29.65 4.17a.78.77-30.5 0 1-.64-.16l-.21-.18" vector-effect="non-scaling-stroke"/><path stroke="#2f5d1e" d="M533.37 212.61q11.32 20.58 20.47 42.7a.78.76-9 0 0 .67.48q51.98 2.68 101.47 18.7.5.16.31-.33c-13.04-33.45-32.02-67.52-56.96-93.79a1.58 1.56 72.8 0 0-.84-.45q-14.99-2.54-29.95-3.87" vector-effect="non-scaling-stroke"/><path stroke="#013d61" d="M568.54 176.05q-29.87-3.22-59.58-2.06-1.06.04-.44.9 13.17 18.21 24.85 37.72" vector-effect="non-scaling-stroke"/><path stroke="#309a7f" d="M568.54 176.05c-11.3 5.56-17.15 11.9-25.16 23.05q-4.89 6.81-10.01 13.51" vector-effect="non-scaling-stroke"/><path stroke="#2f5d1e" d="M441.75 183.54q-33.48 7.21-65.1 20.55a.67.66 72.9 0 0-.39.75l2.78 13.16" vector-effect="non-scaling-stroke"/><path stroke="#3e5f73" d="M379.04 218q8.57 36.33 20.99 71.63a.25.25 0 0 0 .34.15q34.57-14.74 71.17-23.78" vector-effect="non-scaling-stroke"/><path stroke="#2f5d1e" d="M471.54 266q30.89-6.86 62.4-9.77a.37.37 0 0 0 .31-.51q-6.9-16.7-15.71-32.47" vector-effect="non-scaling-stroke"/><path stroke="#194a68" d="M518.54 223.25q-13.34-24.13-31.49-45.84a1.79 1.79 0 0 0-1.51-.64q-22.05 1.74-43.79 6.77" vector-effect="non-scaling-stroke"/><path stroke="#48a786" d="m518.54 223.25-.05.29a.48.45 83.5 0 1-.27.36c-14.23 6-30.83 11.64-41.41 22.58" vector-effect="non-scaling-stroke"/><path stroke="#56a9db" d="M476.81 246.48c-8.29-14.57-25.95-27.77-41.35-33.96-7.85-3.17-17.44-6.29-25.95-6.54q-4.26-.12-8.36-.6a1.28 1.27 71.8 0 1-.82-.42l-.83-.92" vector-effect="non-scaling-stroke"/><path stroke="#48a786" d="M399.5 204.04q17.65-9.31 32.69-14.85 5.93-2.19 9.56-5.65" vector-effect="non-scaling-stroke"/><path stroke="#6dbc91" d="M399.5 204.04q-10.04 5.93-19.01 13.39c-.57.48-.81.4-1.45.57m97.77 28.48c-4.5 6.62-4.19 12.06-5.27 19.52" vector-effect="non-scaling-stroke"/><path stroke="gray" d="M687.96 287.75c.29 1.19 9.75 6.71 11.76 8.07q2.65 1.8 1.27 4.69c-1.15 2.38-6.5 1.13-9.73.47" vector-effect="non-scaling-stroke"/><path stroke="#1b5720" d="m691.26 300.98-13.01-4.56q-.5-.17-.37.34 4.99 19.77 7.31 36.74.69 5.1 1.27 7.25" vector-effect="non-scaling-stroke"/><path stroke="#013d61" d="M686.46 340.75q-.03 2.16.2 4.32 2.06 18.88 2.91 37.87.02.28.39 1.06" vector-effect="non-scaling-stroke"/><path stroke="gray" d="m689.96 384-.44 7.41a.8.79-76.6 0 0 .48.79q5.68 2.45 9.73 7.06a1.47 1.47 0 0 1 .19 1.65q-3.15 5.89-9.84 6.44a.59.59 0 0 0-.55.59q-.01 24.2-2.56 48.27a.28.28 0 0 0 .36.29c1.04-.31 11.06-28.24 12.1-31.32 2.7-7.99 4.81-16.65 7.02-25.07 8.29-31.64 10.46-62.8 5.45-95.29-5.46-35.38-17.06-71.11-41.06-98.28q-1.92-2.18-4.56-3.5-14.04-7.02-28.78-12.25" vector-effect="non-scaling-stroke"/><path stroke="#1b5720" d="M637.5 190.79 621.68 185q-.66-.24-.24.33 5.44 7.42 10.82 14.93c17.63 24.63 29.59 50.97 40.06 79.26a1.29 1.27-86.4 0 0 .61.7c1.69.9 14.41 8.11 15.03 7.53" vector-effect="non-scaling-stroke"/><path stroke="#9ad7a0" d="M637.5 190.79q36.49 41.14 50.05 94.51.3 1.2.41 2.45" vector-effect="non-scaling-stroke"/><path stroke="#80bce1" d="M689.96 384q5.44-25.78 4.31-52.34" vector-effect="non-scaling-stroke"/><path stroke="#9ad7a0" d="M694.27 331.66q-.48-15.32-3.01-30.68" vector-effect="non-scaling-stroke"/><path stroke="#1b9481" d="M694.27 331.66q-4.78 3.93-7.81 9.09" vector-effect="non-scaling-stroke"/><path stroke="#194a68" d="M281.53 313.79q4.19 18.73 11.04 36.75a.39.39 0 0 0 .59.17q17.09-12.08 34.84-23.17" vector-effect="non-scaling-stroke"/><path stroke="#3e5f73" d="M328 327.54q27.19-17.05 56.05-31.07a.62.61 69.6 0 0 .32-.71q-8.76-31.71-16.16-63.76" vector-effect="non-scaling-stroke"/><path stroke="#2f5d1e" d="m368.21 232-3.9-22.24a.39.39 0 0 0-.55-.29c-32.13 14.52-65.48 33.81-91.69 57.62a.83.79 65 0 0-.25.73q3.71 23.18 9.71 45.97" vector-effect="non-scaling-stroke"/><path stroke="#6dbc91" d="M368.21 232h-.29a.42.42 0 0 0-.37.19C354.32 251.51 342.12 271 323.96 285" vector-effect="non-scaling-stroke"/><path stroke="#48a786" d="M323.96 285c-5.31 3.41-9.37 4.85-16.22 5.95q-12.1 1.95-19.5 11.77-3.19 4.24-6.71 11.07" vector-effect="non-scaling-stroke"/><path stroke="#56a9db" d="M328 327.54c.13-6.25-2.11-13.09-2.72-17.44q-1.66-11.86.07-23.77a.6.6 0 0 0-.38-.65q-.59-.22-1.01-.68" vector-effect="non-scaling-stroke"/><path stroke="gray" d="M250.98 227.23c-9.62 19.62-16.86 39.52-19.28 61.4q-.07.6.25.09 9.08-14.38 20.3-27.18 1.14-1.29 1.03-3.01l-1.87-31.21q-.06-.86-.43-.09" vector-effect="non-scaling-stroke"/><path stroke="#013d61" d="m665.38 381.79 13.15 5.04a.34.33-80.8 0 0 .45-.33q-.46-13.57-2.44-27" vector-effect="non-scaling-stroke"/><path stroke="#1b5720" d="M676.54 359.5q-2.71-33.87-13.77-66.06a1.18 1.15-88.4 0 0-.62-.67q-7.77-3.37-15.89-5.8-38.54-11.51-78.75-13.17-2.99-.13-6.02 0a.33.32-12.1 0 0-.29.44q17.43 44.6 28.32 91.23a.56.56 0 0 0 .47.42q38.5 4.47 75.39 15.9" vector-effect="non-scaling-stroke"/><path stroke="#1b9481" d="M676.54 359.5q-6.75 10.46-11.16 22.29" vector-effect="non-scaling-stroke"/><path stroke="#3e5f73" d="M471.5 284.46q-33.58 8.31-64.87 23.29a.67.65-21.7 0 0-.35.79q12.25 39.45 28.97 77.25" vector-effect="non-scaling-stroke"/><path stroke="#194a68" d="m435.25 385.79 2.32 5.19a.53.52 65.4 0 0 .69.26q27.4-12.06 56.53-18.99" vector-effect="non-scaling-stroke"/><path stroke="#013d61" d="M494.79 372.25q23.41-4.91 47.67-7.01" vector-effect="non-scaling-stroke"/><path stroke="#2f5d1e" d="m542.46 365.24 29.14-.44a.44.44 0 0 0 .41-.56c-8.93-30.3-18.37-60.13-30.2-89.31a1.05 1.03-11.9 0 0-1.01-.65q-35.51 1.27-69.3 10.18" vector-effect="non-scaling-stroke"/><path stroke="#309a7f" d="M542.46 365.24q-10.03-17.02-29.96-17.78" vector-effect="non-scaling-stroke"/><path stroke="#48a786" d="M512.5 347.46c-8.45-.69-21.36.32-31.75-4.67" vector-effect="non-scaling-stroke"/><path stroke="#6dbc91" d="M480.75 342.79c-12.95-7.2-15.13-21.39-14.1-34.84.35-4.5 2.66-8.7 3.77-12.26q1.57-4.98 1.08-11.23" vector-effect="non-scaling-stroke"/><path stroke="#1987c9" d="m512.5 347.46-4.01.14a.68.67-84.3 0 0-.63.52c-1.24 5.37-3.99 9-6.76 13.55q-1.28 2.11-2.97 3.91c-1.24 1.31-1.67 2.78-2.54 4.3a1.19 1.16-37.9 0 0-.12.88q.23.91-.68 1.49" vector-effect="non-scaling-stroke"/><path stroke="#56a9db" d="M480.75 342.79c-1.75 3.37-4.11 6.26-6.14 9.42-6.46 10.04-16.15 19.07-25.92 24.71q-5.08 2.93-10.22 5.83-1.1.63-3.22 3.04" vector-effect="non-scaling-stroke"/><path stroke="#1b5720" d="M404.25 552.29q1.41-.76 2.25-2.1a.58.57-54.3 0 0-.12-.75q-20.29-16.84-39.1-35.49" vector-effect="non-scaling-stroke"/><path stroke="#013d61" d="M367.28 513.95q-16.58-16.68-31.44-35.08a.53.53 0 0 0-.75-.07c-7.56 6.39-13.71 13.56-24.09 15.24" vector-effect="non-scaling-stroke"/><path stroke="gray" d="m311 494.04-8.63.04q-3.39.01-1.79-2.98l2.88-5.35" vector-effect="non-scaling-stroke"/><path stroke="#013d61" d="M303.46 485.75q8.75-11.14 19.65-20.18a.56.56 0 0 0 .11-.74l-2.97-4.37" vector-effect="non-scaling-stroke"/><path stroke="#1b5720" d="M320.25 460.46Q302.2 432.69 289.71 402" vector-effect="non-scaling-stroke"/><path stroke="#013d61" d="m289.71 402-7.5-19.01a.57.57 0 0 0-.85-.27q-9.67 6.35-18.66 13.49-1.83 1.46-6.2 2.33" vector-effect="non-scaling-stroke"/><path stroke="gray" d="M256.5 398.54c-1.39-.4-2.97-.31-4.17-1.1-7.71-5.1-5.95-12.93-.21-18.92" vector-effect="non-scaling-stroke"/><path stroke="#013d61" d="m252.12 378.52 20.38-14.48" vector-effect="non-scaling-stroke"/><path stroke="#1b5720" d="m272.5 364.04 2.29-1.61a.72.72 0 0 0 .27-.82q-12.55-37.82-19.06-77.16" vector-effect="non-scaling-stroke"/><path stroke="gray" d="m256 284.45.04-3.5q.01-1.07-.81-.39-7.33 6.13-15.16 11.63c-2.96 2.08-5.33 2.19-8.66 1.41a.43.43 0 0 0-.52.38q-5.16 61.94 12.82 120.95c21.38 70.15 79.17 127.61 148.6 150.32a1 .99 29 0 0 1.07-.3l10.87-12.66" vector-effect="non-scaling-stroke"/><path stroke="#9ad7a0" d="M256 284.45q-1.75 4.06-3.25 12.05-3.91 20.78-3.83 36.83" vector-effect="non-scaling-stroke"/><path stroke="#80bce1" d="M248.92 333.33q-1.39 22.98 3.2 45.19m4.38 20.02q12.92 47.29 44.44 84.77.65.78 2.52 2.44m7.54 8.29q28.23 30.02 65.71 47.21" vector-effect="non-scaling-stroke"/><path stroke="#9ad7a0" d="M376.71 541.25q13.34 6.58 27.54 11.04" vector-effect="non-scaling-stroke"/><path stroke="#1b9481" d="M367.28 513.95q2.54 13.82 9.29 26.01c.26.46.22.79.14 1.29m-87-139.25c-17.45 25.68 4.89 51.74 29.78 58.7a.61.61 0 0 0 .52-.09l.24-.15m-47.75-96.42q-11.03-15.87-23.58-30.71" vector-effect="non-scaling-stroke"/><path stroke="#194a68" d="m318.5 357.08-17.15 12.72a1.28 1.26 61.9 0 0-.43 1.46l7.87 20.99" vector-effect="non-scaling-stroke"/><path stroke="#1b5720" d="M308.79 392.25q11.66 31.53 30.08 59.51a.52.52 0 0 0 .76.12q36.38-29.09 77.12-50.59" vector-effect="non-scaling-stroke"/><path stroke="#3e5f73" d="M416.75 401.29q2.14-.56 3.83-1.91a.73.73 0 0 0 .21-.86q-16.96-40.59-30.7-82.39a.83.82 67.7 0 0-1.14-.48q-36.86 17.83-70.45 41.43" vector-effect="non-scaling-stroke"/><path stroke="#58b693" d="M416.75 401.29q-.62-.25-1.24-.42-33.25-9.45-67.26-15.66" vector-effect="non-scaling-stroke"/><path stroke="#56a9db" d="m348.25 385.21.16-.25a.2.2 0 0 0-.07-.27l-.37-.21q-.41-.23.06-.23h.45a.29.28 85.6 0 0 .28-.33q-.27-1.7-1.84-2.1-.48-.12-.86-.43c-5.7-4.74-12.59-8.93-17.45-14.48q-4.61-5.27-10.11-9.83" vector-effect="non-scaling-stroke"/><path stroke="#33a188" d="M348.25 385.21c-13.5-2.07-30.42 4.74-39.46 7.04" vector-effect="non-scaling-stroke"/><path stroke="#013d61" d="M554.46 384q-56.06 3.01-106.56 26.31a.76.76 0 0 0-.36 1.03c14.23 28.16 31.49 54.73 48.96 80.95a.66.65 62.6 0 0 .77.25q23.26-8.73 47.77-12.77 9.84-1.63 19.71-3.06" vector-effect="non-scaling-stroke"/><path stroke="#1b5720" d="m564.75 476.71 27.07-1.62a.52.52 0 0 0 .49-.56q-3.28-46.04-15.36-90.6a.68.67 81.3 0 0-.67-.5l-21.82.57" vector-effect="non-scaling-stroke"/><path stroke="#1b9481" d="M564.75 476.71c-2.49-19.76 1.03-36.68 6-56.21 1.86-7.27.96-13.2-3.98-18.78-4.07-4.6-10.47-11.92-12.31-17.72" vector-effect="non-scaling-stroke"/><path stroke="gray" d="m643 482.21 22.73 6.64a.88.86-60.1 0 0 .88-.25q5.91-6.59 10.29-14.31 1.01-1.79 1.18-3.83 2.18-25.2 1.42-49.81" vector-effect="non-scaling-stroke"/><path stroke="#013d61" d="M679.5 420.65q.51-8.42-.1-17.01a.7.68 8.9 0 0-.44-.59q-10.61-4.16-21.46-7.01" vector-effect="non-scaling-stroke"/><path stroke="#1b5720" d="M657.5 396.04q-30.47-8.57-61.98-11.42a.32.32 0 0 0-.34.39q10.37 44.44 12.83 90.02a.81.8-87.4 0 0 .67.75q17.19 2.66 34.32 6.43" vector-effect="non-scaling-stroke"/><path stroke="#1b9481" d="M657.5 396.04c-.16.8-.17 2.15-.54 2.83q-10.56 19.41-9.49 39.88 1.21 23.01.7 36.56" vector-effect="non-scaling-stroke"/><path stroke="#9ad7a0" d="m648.17 475.31-5.17 6.9" vector-effect="non-scaling-stroke"/><path stroke="#80bce1" d="M679.5 420.65q-11.67 29.48-31.33 54.66" vector-effect="non-scaling-stroke"/><path stroke="#013d61" d="M430.93 530.36q22.94-17.1 48.12-30.13a.46.46 0 0 0 .18-.66l-32.44-51.07" vector-effect="non-scaling-stroke"/><path stroke="#1b5720" d="m446.79 448.5-16.18-29.8a.58.58 0 0 0-.73-.26q-43.12 18.14-78.66 48.53a.63.63 0 0 0-.08.88q30.86 38.41 67.92 70.86a.66.66 0 0 0 .84.03l11.03-8.38" vector-effect="non-scaling-stroke"/><path stroke="#1b9481" d="M446.79 448.5c-2.14 11.01-6.24 21.25-10.13 31.72-3.49 9.39-4.11 16.87-4.98 26.97q-1.22 13.99-.75 23.17" vector-effect="non-scaling-stroke"/><path stroke="#013d61" d="M569 493.04q-28.13 3.49-54.99 12.5-3.15 1.06-6.33 2.6a.45.44-29.1 0 0-.19.64q14.47 22.8 31.76 43.51" vector-effect="non-scaling-stroke"/><path stroke="gray" d="m539.25 552.29 12.68 14.7a.74.74 0 0 0 .83.21q20.37-7.66 39.66-17.72a.96.93 78.8 0 0 .5-.77q.9-11.2.79-22.21" vector-effect="non-scaling-stroke"/><path stroke="#1b5720" d="M593.71 526.5q.37-17.23-.5-34.44a.53.53 0 0 0-.52-.51q-11.9-.14-23.69 1.49" vector-effect="non-scaling-stroke"/><path stroke="#9ad7a0" d="m593.71 526.5-4.71 2.54" vector-effect="non-scaling-stroke"/><path stroke="#1b9481" d="M589 529.04c-9.42-6.9-16.94-25.06-20-36" vector-effect="non-scaling-stroke"/><path stroke="#80bce1" d="M589 529.04q-23.5 14.54-49.75 23.25" vector-effect="non-scaling-stroke"/><path stroke="gray" d="M608.75 515.04c-1.5 1.72-1.37 21.95-1.49 25.59q-.02.48.41.24 29.49-17.31 51.9-43.1a.35.35 0 0 0-.18-.57q-12.99-3.15-26.39-4.16" vector-effect="non-scaling-stroke"/><path stroke="#1b5720" d="M633 493.04q-11.87-1.97-23.99-1.43a.54.54 0 0 0-.51.53l-.33 22.24a.54.52 17.4 0 0 .24.44l.34.22" vector-effect="non-scaling-stroke"/><path stroke="#9ad7a0" d="M633 493.04q-10.96 12.29-24.25 22" vector-effect="non-scaling-stroke"/><path stroke="gray" d="M446.7 561.4q10.71 8.15 21.94 15.41a1.82 1.74-27.1 0 0 .93.28q30.81.55 61.18-4.65a.32.32 0 0 0 .2-.52L519 557.21" vector-effect="non-scaling-stroke"/><path stroke="#013d61" d="M519 557.21q-.15-.75-.39-1.06-14.83-20.07-28.81-40.8a.57.57 0 0 0-.71-.2q-30.14 13.43-56.17 33.72a1.23 1.23 0 0 0-.06 1.89q6.39 5.63 13.84 10.64" vector-effect="non-scaling-stroke"/><path stroke="#80bce1" d="M519 557.21c-23.19 5.78-48.71 6.36-72.3 4.19" vector-effect="non-scaling-stroke"/><path stroke="gray" d="M411.57 571.31c10.69 3.16 22.36 3.86 33.46 4.77q.48.04.08-.22l-23.92-15.77a1.03 1.03 0 0 0-1.38.22l-8.33 10.72a.18.18 0 0 0 .09.28" vector-effect="non-scaling-stroke"/></g><path d="M405.54 95.5q-20.69 5.25-39.41 15.45a.88.88 0 0 0-.46.74q-.5 15.6 1.33 31.1l2.54 22.21 3.06 22.06a.4.4 0 0 0 .55.32q35.31-13.84 72.39-21.88l27.4-4.61q.49-.08.15-.44-21.08-21.67-45.55-39.45c-6.68-6.93-5.1-19.54 6.98-18.85q2.09.12 3.93-.3 18.59-4.21 34.05-4.33c12.41-.1 25.99-.48 37.25.21q30.74 1.9 60.73 11.56.43.14.56-.29 5.55 2.28 11.17 4.34c42.08 15.5 83.96 43.95 109.23 81.22 7.08 10.44 15.35 24.67 20.94 36.46 42.49 89.57 19.18 195.86-38.34 272.52-20.63 27.51-47.7 52.36-78.5 67.19-30.65 14.76-63.31 24.67-97.48 26.03-36.62 1.46-76.31-2.2-111.71-12.93-64.32-19.48-113.13-64.32-145.77-121.91-35.89-63.34-36.12-141.62-15.99-209.85 2.65-8.97 5.78-15.95 10.27-25.31 26.45-55.06 70.51-102.89 126.19-128.19 42.33-19.24 90.09-29.16 137.3-23.64 2.42.28 8.25 1.98 4.94 4.94a3.72 3.7-66 0 1-2.4.93c-32.33.34-63.51 5.73-94.8 13.61a.77.76 87.4 0 0-.58.65q-.02.21.03.44Zm51.96 22.04q20.12 19.28 38.37 40.42a1.02 1.01-21 0 0 .82.36q30.65-1.21 63.88 2.63 14.25 1.65 24.43 3.88.49.11.19-.29c-1.96-2.63-7.69-8.03-7.5-11.27q.15-2.57 2.72-2.75c6.42-.45 17.86 9.32 22.6 13.49q4.69 4.13 11.24 4.7 1.88.99 3.94 1.62 18.73 5.74 34.45 12.96 3.44 1.58.86-1.19c-52.22-56.02-135.02-79.03-209.38-74.76q-.46.03-.09.3l13.47 9.9ZM269.75 244.29l.17 2.14q.05.6.51.21c27.16-22.37 58.8-40.59 90.81-55.02a.68.68 0 0 0 .39-.71l-3.38-25.2-1.79-16.46-2.19-32.53a.31.31 0 0 0-.46-.25c-34.28 20.42-63.7 51.12-86.63 83.32a1.58 1.57-27.5 0 0-.29.91q-.24 21.97 2.86 43.59Zm263.62-31.68q11.32 20.58 20.47 42.7a.78.76-9 0 0 .67.48q51.98 2.68 101.47 18.7.5.16.31-.33c-13.04-33.45-32.02-67.52-56.96-93.79a1.58 1.56 72.8 0 0-.84-.45q-14.99-2.54-29.95-3.87-29.87-3.22-59.58-2.06-1.06.04-.44.9 13.17 18.21 24.85 37.72Zm-91.62-29.07q-33.48 7.21-65.1 20.55a.67.66 72.9 0 0-.39.75l2.78 13.16q8.57 36.33 20.99 71.63a.25.25 0 0 0 .34.15q34.57-14.74 71.17-23.78 30.89-6.86 62.4-9.77a.37.37 0 0 0 .31-.51q-6.9-16.7-15.71-32.47-13.34-24.13-31.49-45.84a1.79 1.79 0 0 0-1.51-.64q-22.05 1.74-43.79 6.77Zm246.21 104.21c.29 1.19 9.75 6.71 11.76 8.07q2.65 1.8 1.27 4.69c-1.15 2.38-6.5 1.13-9.73.47l-13.01-4.56q-.5-.17-.37.34 4.99 19.77 7.31 36.74.69 5.1 1.27 7.25-.03 2.16.2 4.32 2.06 18.88 2.91 37.87.02.28.39 1.06l-.44 7.41a.8.79-76.6 0 0 .48.79q5.68 2.45 9.73 7.06a1.47 1.47 0 0 1 .19 1.65q-3.15 5.89-9.84 6.44a.59.59 0 0 0-.55.59q-.01 24.2-2.56 48.27a.28.28 0 0 0 .36.29c1.04-.31 11.06-28.24 12.1-31.32 2.7-7.99 4.81-16.65 7.02-25.07 8.29-31.64 10.46-62.8 5.45-95.29-5.46-35.38-17.06-71.11-41.06-98.28q-1.92-2.18-4.56-3.5-14.04-7.02-28.78-12.25L621.68 185q-.66-.24-.24.33 5.44 7.42 10.82 14.93c17.63 24.63 29.59 50.97 40.06 79.26a1.29 1.27-86.4 0 0 .61.7c1.69.9 14.41 8.11 15.03 7.53Zm-406.43 26.04q4.19 18.73 11.04 36.75a.39.39 0 0 0 .59.17q17.09-12.08 34.84-23.17 27.19-17.05 56.05-31.07a.62.61 69.6 0 0 .32-.71q-8.76-31.71-16.16-63.76l-3.9-22.24a.39.39 0 0 0-.55-.29c-32.13 14.52-65.48 33.81-91.69 57.62a.83.79 65 0 0-.25.73q3.71 23.18 9.71 45.97Zm-30.55-86.56c-9.62 19.62-16.86 39.52-19.28 61.4q-.07.6.25.09 9.08-14.38 20.3-27.18 1.14-1.29 1.03-3.01l-1.87-31.21q-.06-.86-.43-.09Zm414.4 154.56 13.15 5.04a.34.33-80.8 0 0 .45-.33q-.46-13.57-2.44-27-2.71-33.87-13.77-66.06a1.18 1.15-88.4 0 0-.62-.67q-7.77-3.37-15.89-5.8-38.54-11.51-78.75-13.17-2.99-.13-6.02 0a.33.32-12.1 0 0-.29.44q17.43 44.6 28.32 91.23a.56.56 0 0 0 .47.42q38.5 4.47 75.39 15.9ZM471.5 284.46q-33.58 8.31-64.87 23.29a.67.65-21.7 0 0-.35.79q12.25 39.45 28.97 77.25l2.32 5.19a.53.52 65.4 0 0 .69.26q27.4-12.06 56.53-18.99 23.41-4.91 47.67-7.01l29.14-.44a.44.44 0 0 0 .41-.56c-8.93-30.3-18.37-60.13-30.2-89.31a1.05 1.03-11.9 0 0-1.01-.65q-35.51 1.27-69.3 10.18Zm-67.25 267.83q1.41-.76 2.25-2.1a.58.57-54.3 0 0-.12-.75q-20.29-16.84-39.1-35.49-16.58-16.68-31.44-35.08a.53.53 0 0 0-.75-.07c-7.56 6.39-13.71 13.56-24.09 15.24l-8.63.04q-3.39.01-1.79-2.98l2.88-5.35q8.75-11.14 19.65-20.18a.56.56 0 0 0 .11-.74l-2.97-4.37Q302.2 432.69 289.71 402l-7.5-19.01a.57.57 0 0 0-.85-.27q-9.67 6.35-18.66 13.49-1.83 1.46-6.2 2.33c-1.39-.4-2.97-.31-4.17-1.1-7.71-5.1-5.95-12.93-.21-18.92l20.38-14.48 2.29-1.61a.72.72 0 0 0 .27-.82q-12.55-37.82-19.06-77.16l.04-3.5q.01-1.07-.81-.39-7.33 6.13-15.16 11.63c-2.96 2.08-5.33 2.19-8.66 1.41a.43.43 0 0 0-.52.38q-5.16 61.94 12.82 120.95c21.38 70.15 79.17 127.61 148.6 150.32a1 .99 29 0 0 1.07-.3l10.87-12.66ZM318.5 357.08l-17.15 12.72a1.28 1.26 61.9 0 0-.43 1.46l7.87 20.99q11.66 31.53 30.08 59.51a.52.52 0 0 0 .76.12q36.38-29.09 77.12-50.59 2.14-.56 3.83-1.91a.73.73 0 0 0 .21-.86q-16.96-40.59-30.7-82.39a.83.82 67.7 0 0-1.14-.48q-36.86 17.83-70.45 41.43ZM554.46 384q-56.06 3.01-106.56 26.31a.76.76 0 0 0-.36 1.03c14.23 28.16 31.49 54.73 48.96 80.95a.66.65 62.6 0 0 .77.25q23.26-8.73 47.77-12.77 9.84-1.63 19.71-3.06l27.07-1.62a.52.52 0 0 0 .49-.56q-3.28-46.04-15.36-90.6a.68.67 81.3 0 0-.67-.5l-21.82.57ZM643 482.21l22.73 6.64a.88.86-60.1 0 0 .88-.25q5.91-6.59 10.29-14.31 1.01-1.79 1.18-3.83 2.18-25.2 1.42-49.81.51-8.42-.1-17.01a.7.68 8.9 0 0-.44-.59q-10.61-4.16-21.46-7.01-30.47-8.57-61.98-11.42a.32.32 0 0 0-.34.39q10.37 44.44 12.83 90.02a.81.8-87.4 0 0 .67.75q17.19 2.66 34.32 6.43Zm-212.07 48.15q22.94-17.1 48.12-30.13a.46.46 0 0 0 .18-.66l-32.44-51.07-16.18-29.8a.58.58 0 0 0-.73-.26q-43.12 18.14-78.66 48.53a.63.63 0 0 0-.08.88q30.86 38.41 67.92 70.86a.66.66 0 0 0 .84.03l11.03-8.38ZM569 493.04q-28.13 3.49-54.99 12.5-3.15 1.06-6.33 2.6a.45.44-29.1 0 0-.19.64q14.47 22.8 31.76 43.51l12.68 14.7a.74.74 0 0 0 .83.21q20.37-7.66 39.66-17.72a.96.93 78.8 0 0 .5-.77q.9-11.2.79-22.21.37-17.23-.5-34.44a.53.53 0 0 0-.52-.51q-11.9-.14-23.69 1.49Zm39.75 22c-1.5 1.72-1.37 21.95-1.49 25.59q-.02.48.41.24 29.49-17.31 51.9-43.1a.35.35 0 0 0-.18-.57q-12.99-3.15-26.39-4.16-11.87-1.97-23.99-1.43a.54.54 0 0 0-.51.53l-.33 22.24a.54.52 17.4 0 0 .24.44l.34.22ZM446.7 561.4q10.71 8.15 21.94 15.41a1.82 1.74-27.1 0 0 .93.28q30.81.55 61.18-4.65a.32.32 0 0 0 .2-.52L519 557.21q-.15-.75-.39-1.06-14.83-20.07-28.81-40.8a.57.57 0 0 0-.71-.2q-30.14 13.43-56.17 33.72a1.23 1.23 0 0 0-.06 1.89q6.39 5.63 13.84 10.64Zm-35.13 9.91c10.69 3.16 22.36 3.86 33.46 4.77q.48.04.08-.22l-23.92-15.77a1.03 1.03 0 0 0-1.38.22l-8.33 10.72a.18.18 0 0 0 .09.28Z"/><path fill="#fff" d="M571.04 109q-.13.43-.56.29-29.99-9.66-60.73-11.56c-11.26-.69-24.84-.31-37.25-.21q-15.46.12-34.05 4.33-1.84.42-3.93.3c-12.08-.69-13.66 11.92-6.98 18.85q-31.76 6.79-60.54 21.79-1.83-15.5-1.33-31.1a.88.88 0 0 1 .46-.74q18.72-10.2 39.41-15.45c55.94-13.66 112.6-9.71 165.5 13.5Z"/><path fill="#fff" d="M614.25 168.71c-42.4-36.12-97.54-53.84-152.95-51.56q-1.89.07-3.8.39l-13.47-9.9q-.37-.27.09-.3c74.36-4.27 157.16 18.74 209.38 74.76q2.58 2.77-.86 1.19-15.72-7.22-34.45-12.96-2.06-.63-3.94-1.62Zm-257.79-19.46c-10.31 5.13-19.98 12.83-28.71 20.29q-36.88 30.95-57.48 74.48a.38.37-83.2 0 1-.26.21l-.26.06q-3.1-21.62-2.86-43.59a1.58 1.57-27.5 0 1 .29-.91c22.93-32.2 52.35-62.9 86.63-83.32a.31.31 0 0 1 .46.25l2.19 32.53Z"/><path fill="#0179c2" d="M614.25 168.71q-6.55-.57-11.24-4.7c-4.74-4.17-16.18-13.94-22.6-13.49q-2.57.18-2.72 2.75c-.19 3.24 5.54 8.64 7.5 11.27q.3.4-.19.29-10.18-2.23-24.43-3.88-33.23-3.84-63.88-2.63a1.02 1.01-21 0 1-.82-.36q-18.25-21.14-38.37-40.42 1.91-.32 3.8-.39c55.41-2.28 110.55 15.44 152.95 51.56ZM427.54 121q24.47 17.78 45.55 39.45.34.36-.15.44l-27.4 4.61.12-.29a.91.87 42.3 0 0-.05-.75q-5.09-9.21-15.87-9.58c-14.74-.5-29.93 5.27-44.31 8.38-4.99 1.07-10.6 1.05-15.89 1.74L367 142.79q28.78-15 60.54-21.79Zm-71.08 28.25 1.79 16.46q-14.93 1.39-29.65 4.17a.78.77-30.5 0 1-.64-.16l-.21-.18c8.73-7.46 18.4-15.16 28.71-20.29Z"/><path fill="#35ae40" d="M445.54 165.5q-37.08 8.04-72.39 21.88a.4.4 0 0 1-.55-.32L369.54 165c5.29-.69 10.9-.67 15.89-1.74 14.38-3.11 29.57-8.88 44.31-8.38q10.78.37 15.87 9.58a.91.87 42.3 0 1 .05.75l-.12.29Zm-87.29.21 3.38 25.2a.68.68 0 0 1-.39.71c-32.01 14.43-63.65 32.65-90.81 55.02q-.46.39-.51-.21l-.17-2.14.26-.06a.38.37-83.2 0 0 .26-.21q20.6-43.53 57.48-74.48l.21.18a.78.77-30.5 0 0 .64.16q14.72-2.78 29.65-4.17Z"/><path fill="#0179c2" d="M568.54 176.05c-11.3 5.56-17.15 11.9-25.16 23.05q-4.89 6.81-10.01 13.51-11.68-19.51-24.85-37.72-.62-.86.44-.9 29.71-1.16 59.58 2.06Z"/><path fill="#5eba3c" d="M568.54 176.05q14.96 1.33 29.95 3.87a1.58 1.56 72.8 0 1 .84.45c24.94 26.27 43.92 60.34 56.96 93.79q.19.49-.31.33-49.49-16.02-101.47-18.7a.78.76-9 0 1-.67-.48q-9.15-22.12-20.47-42.7 5.12-6.7 10.01-13.51c8.01-11.15 13.86-17.49 25.16-23.05Z"/><path fill="#3194d0" d="m518.54 223.25-.05.29a.48.45 83.5 0 1-.27.36c-14.23 6-30.83 11.64-41.41 22.58-8.29-14.57-25.95-27.77-41.35-33.96-7.85-3.17-17.44-6.29-25.95-6.54q-4.26-.12-8.36-.6a1.28 1.27 71.8 0 1-.82-.42l-.83-.92q17.65-9.31 32.69-14.85 5.93-2.19 9.56-5.65 21.74-5.03 43.79-6.77a1.79 1.79 0 0 1 1.51.64q18.15 21.71 31.49 45.84Z"/><path fill="#5eba3c" d="M441.75 183.54q-3.63 3.46-9.56 5.65-15.04 5.54-32.69 14.85-10.04 5.93-19.01 13.39c-.57.48-.81.4-1.45.57l-2.78-13.16a.67.66 72.9 0 1 .39-.75q31.62-13.34 65.1-20.55Z"/><path fill="#35ae40" d="M637.5 190.79q36.49 41.14 50.05 94.51.3 1.2.41 2.45c-.62.58-13.34-6.63-15.03-7.53a1.29 1.27-86.4 0 1-.61-.7c-10.47-28.29-22.43-54.63-40.06-79.26q-5.38-7.51-10.82-14.93-.42-.57.24-.33l15.82 5.79Z"/><path fill="#fff" d="M637.5 190.79q14.74 5.23 28.78 12.25 2.64 1.32 4.56 3.5c24 27.17 35.6 62.9 41.06 98.28 5.01 32.49 2.84 63.65-5.45 95.29-2.21 8.42-4.32 17.08-7.02 25.07-1.04 3.08-11.06 31.01-12.1 31.32a.28.28 0 0 1-.36-.29q2.55-24.07 2.56-48.27a.59.59 0 0 1 .55-.59q6.69-.55 9.84-6.44a1.47 1.47 0 0 0-.19-1.65q-4.05-4.61-9.73-7.06a.8.79-76.6 0 1-.48-.79l.44-7.41q5.44-25.78 4.31-52.34-.48-15.32-3.01-30.68c3.23.66 8.58 1.91 9.73-.47q1.38-2.89-1.27-4.69c-2.01-1.36-11.47-6.88-11.76-8.07q-.11-1.25-.41-2.45-13.56-53.37-50.05-94.51Z"/><path fill="#7bbee5" d="m399.5 204.04.83.92a1.28 1.27 71.8 0 0 .82.42q4.1.48 8.36.6c8.51.25 18.1 3.37 25.95 6.54 15.4 6.19 33.06 19.39 41.35 33.96-4.5 6.62-4.19 12.06-5.27 19.52q-36.6 9.04-71.17 23.78a.25.25 0 0 1-.34-.15q-12.42-35.3-20.99-71.63c.64-.17.88-.09 1.45-.57q8.97-7.46 19.01-13.39Z"/><path fill="#5eba3c" d="M368.21 232h-.29a.42.42 0 0 0-.37.19C354.32 251.51 342.12 271 323.96 285c-5.31 3.41-9.37 4.85-16.22 5.95q-12.1 1.95-19.5 11.77-3.19 4.24-6.71 11.07-6-22.79-9.71-45.97a.83.79 65 0 1 .25-.73c26.21-23.81 59.56-43.1 91.69-57.62a.39.39 0 0 1 .55.29l3.9 22.24Zm150.33-8.75q8.81 15.77 15.71 32.47a.37.37 0 0 1-.31.51q-31.51 2.91-62.4 9.77c1.08-7.46.77-12.9 5.27-19.52 10.58-10.94 27.18-16.58 41.41-22.58a.48.45 83.5 0 0 .27-.36l.05-.29Z"/><path fill="#fff" d="M231.7 288.63c2.42-21.88 9.66-41.78 19.28-61.4q.37-.77.43.09l1.87 31.21q.11 1.72-1.03 3.01-11.22 12.8-20.3 27.18-.32.51-.25-.09Z"/><path fill="#7bbee5" d="M368.21 232q7.4 32.05 16.16 63.76a.62.61 69.6 0 1-.32.71q-28.86 14.02-56.05 31.07c.13-6.25-2.11-13.09-2.72-17.44q-1.66-11.86.07-23.77a.6.6 0 0 0-.38-.65q-.59-.22-1.01-.68c18.16-14 30.36-33.49 43.59-52.81a.42.42 0 0 1 .37-.19h.29Z"/><path fill="#35ae40" d="M676.54 359.5q-6.75 10.46-11.16 22.29-36.89-11.43-75.39-15.9a.56.56 0 0 1-.47-.42q-10.89-46.63-28.32-91.23a.33.32-12.1 0 1 .29-.44q3.03-.13 6.02 0 40.21 1.66 78.75 13.17 8.12 2.43 15.89 5.8a1.18 1.15-88.4 0 1 .62.67q11.06 32.19 13.77 66.06Z"/><path fill="#5eba3c" d="M542.46 365.24q-10.03-17.02-29.96-17.78c-8.45-.69-21.36.32-31.75-4.67-12.95-7.2-15.13-21.39-14.1-34.84.35-4.5 2.66-8.7 3.77-12.26q1.57-4.98 1.08-11.23 33.79-8.91 69.3-10.18a1.05 1.03-11.9 0 1 1.01.65c11.83 29.18 21.27 59.01 30.2 89.31a.44.44 0 0 1-.41.56l-29.14.44Z"/><path fill="#fff" d="M256 284.45q-1.75 4.06-3.25 12.05-3.91 20.78-3.83 36.83-1.39 22.98 3.2 45.19c-5.74 5.99-7.5 13.82.21 18.92 1.2.79 2.78.7 4.17 1.1q12.92 47.29 44.44 84.77.65.78 2.52 2.44l-2.88 5.35q-1.6 2.99 1.79 2.98l8.63-.04q28.23 30.02 65.71 47.21 13.34 6.58 27.54 11.04l-10.87 12.66a1 .99 29 0 1-1.07.3c-69.43-22.71-127.22-80.17-148.6-150.32q-17.98-59.01-12.82-120.95a.43.43 0 0 1 .52-.38c3.33.78 5.7.67 8.66-1.41q7.83-5.5 15.16-11.63.82-.68.81.39l-.04 3.5Z"/><path fill="#35ae40" d="M256 284.45q6.51 39.34 19.06 77.16a.72.72 0 0 1-.27.82l-2.29 1.61q-11.03-15.87-23.58-30.71-.08-16.05 3.83-36.83 1.5-7.99 3.25-12.05Z"/><path fill="#7bbee5" d="M471.5 284.46q.49 6.25-1.08 11.23c-1.11 3.56-3.42 7.76-3.77 12.26-1.03 13.45 1.15 27.64 14.1 34.84-1.75 3.37-4.11 6.26-6.14 9.42-6.46 10.04-16.15 19.07-25.92 24.71q-5.08 2.93-10.22 5.83-1.1.63-3.22 3.04-16.72-37.8-28.97-77.25a.67.65-21.7 0 1 .35-.79q31.29-14.98 64.87-23.29Z"/><path fill="#3194d0" d="M323.96 285q.42.46 1.01.68a.6.6 0 0 1 .38.65q-1.73 11.91-.07 23.77c.61 4.35 2.85 11.19 2.72 17.44q-17.75 11.09-34.84 23.17a.39.39 0 0 1-.59-.17q-6.85-18.02-11.04-36.75 3.52-6.83 6.71-11.07 7.4-9.82 19.5-11.77c6.85-1.1 10.91-2.54 16.22-5.95Z"/><path fill="#35ae40" d="M691.26 300.98q2.53 15.36 3.01 30.68-4.78 3.93-7.81 9.09-.58-2.15-1.27-7.25-2.32-16.97-7.31-36.74-.13-.51.37-.34l13.01 4.56Z"/><path fill="#7bbee5" d="M416.75 401.29q-.62-.25-1.24-.42-33.25-9.45-67.26-15.66l.16-.25a.2.2 0 0 0-.07-.27l-.37-.21q-.41-.23.06-.23h.45a.29.28 85.6 0 0 .28-.33q-.27-1.7-1.84-2.1-.48-.12-.86-.43c-5.7-4.74-12.59-8.93-17.45-14.48q-4.61-5.27-10.11-9.83 33.59-23.6 70.45-41.43a.83.82 67.7 0 1 1.14.48q13.74 41.8 30.7 82.39a.73.73 0 0 1-.21.86q-1.69 1.35-3.83 1.91Z"/><path fill="#0179c2" d="M694.27 331.66q1.13 26.56-4.31 52.34-.37-.78-.39-1.06-.85-18.99-2.91-37.87-.23-2.16-.2-4.32 3.03-5.16 7.81-9.09Zm-445.35 1.67q12.55 14.84 23.58 30.71l-20.38 14.48q-4.59-22.21-3.2-45.19Z"/><path fill="#3194d0" d="M480.75 342.79c10.39 4.99 23.3 3.98 31.75 4.67l-4.01.14a.68.67-84.3 0 0-.63.52c-1.24 5.37-3.99 9-6.76 13.55q-1.28 2.11-2.97 3.91c-1.24 1.31-1.67 2.78-2.54 4.3a1.19 1.16-37.9 0 0-.12.88q.23.91-.68 1.49-29.13 6.93-56.53 18.99a.53.52 65.4 0 1-.69-.26l-2.32-5.19q2.12-2.41 3.22-3.04 5.14-2.9 10.22-5.83c9.77-5.64 19.46-14.67 25.92-24.71 2.03-3.16 4.39-6.05 6.14-9.42Z"/><path fill="#0179c2" d="M512.5 347.46q19.93.76 29.96 17.78-24.26 2.1-47.67 7.01.91-.58.68-1.49a1.19 1.16-37.9 0 1 .12-.88c.87-1.52 1.3-2.99 2.54-4.3q1.69-1.8 2.97-3.91c2.77-4.55 5.52-8.18 6.76-13.55a.68.67-84.3 0 1 .63-.52l4.01-.14Z"/><path fill="#3194d0" d="M318.5 357.08q5.5 4.56 10.11 9.83c4.86 5.55 11.75 9.74 17.45 14.48q.38.31.86.43 1.57.4 1.84 2.1a.29.28 85.6 0 1-.28.33h-.45q-.47 0-.06.23l.37.21a.2.2 0 0 1 .07.27l-.16.25c-13.5-2.07-30.42 4.74-39.46 7.04l-7.87-20.99a1.28 1.26 61.9 0 1 .43-1.46l17.15-12.72Z"/><path fill="#0179c2" d="M676.54 359.5q1.98 13.43 2.44 27a.34.33-80.8 0 1-.45.33l-13.15-5.04q4.41-11.83 11.16-22.29ZM289.71 402c-17.45 25.68 4.89 51.74 29.78 58.7a.61.61 0 0 0 .52-.09l.24-.15 2.97 4.37a.56.56 0 0 1-.11.74q-10.9 9.04-19.65 20.18-1.87-1.66-2.52-2.44-31.52-37.48-44.44-84.77 4.37-.87 6.2-2.33 8.99-7.14 18.66-13.49a.57.57 0 0 1 .85.27l7.5 19.01Z"/><path fill="#35ae40" d="M564.75 476.71c-2.49-19.76 1.03-36.68 6-56.21 1.86-7.27.96-13.2-3.98-18.78-4.07-4.6-10.47-11.92-12.31-17.72l21.82-.57a.68.67 81.3 0 1 .67.5q12.08 44.56 15.36 90.6a.52.52 0 0 1-.49.56l-27.07 1.62Z"/><path fill="#0179c2" d="M554.46 384c1.84 5.8 8.24 13.12 12.31 17.72 4.94 5.58 5.84 11.51 3.98 18.78-4.97 19.53-8.49 36.45-6 56.21q-9.87 1.43-19.71 3.06-24.51 4.04-47.77 12.77a.66.65 62.6 0 1-.77-.25c-17.47-26.22-34.73-52.79-48.96-80.95a.76.76 0 0 1 .36-1.03q50.5-23.3 106.56-26.31Z"/><path fill="#35ae40" d="M657.5 396.04c-.16.8-.17 2.15-.54 2.83q-10.56 19.41-9.49 39.88 1.21 23.01.7 36.56l-5.17 6.9q-17.13-3.77-34.32-6.43a.81.8-87.4 0 1-.67-.75q-2.46-45.58-12.83-90.02a.32.32 0 0 1 .34-.39q31.51 2.85 61.98 11.42Zm-309.25-10.83q34.01 6.21 67.26 15.66.62.17 1.24.42-40.74 21.5-77.12 50.59a.52.52 0 0 1-.76-.12q-18.42-27.98-30.08-59.51c9.04-2.3 25.96-9.11 39.46-7.04Z"/><path fill="#0179c2" d="M657.5 396.04q10.85 2.85 21.46 7.01a.7.68 8.9 0 1 .44.59q.61 8.59.1 17.01-11.67 29.48-31.33 54.66.51-13.55-.7-36.56-1.07-20.47 9.49-39.88c.37-.68.38-2.03.54-2.83Z"/><path fill="#35ae40" d="M289.71 402q12.49 30.69 30.54 58.46l-.24.15a.61.61 0 0 1-.52.09c-24.89-6.96-47.23-33.02-29.78-58.7Zm157.08 46.5c-2.14 11.01-6.24 21.25-10.13 31.72-3.49 9.39-4.11 16.87-4.98 26.97q-1.22 13.99-.75 23.17l-11.03 8.38a.66.66 0 0 1-.84-.03q-37.06-32.45-67.92-70.86a.63.63 0 0 1 .08-.88q35.54-30.39 78.66-48.53a.58.58 0 0 1 .73.26l16.18 29.8Z"/><path fill="#fff" d="M679.5 420.65q.76 24.61-1.42 49.81-.17 2.04-1.18 3.83-4.38 7.72-10.29 14.31a.88.86-60.1 0 1-.88.25L643 482.21l5.17-6.9q19.66-25.18 31.33-54.66Z"/><path fill="#0179c2" d="m446.79 448.5 32.44 51.07a.46.46 0 0 1-.18.66q-25.18 13.03-48.12 30.13-.47-9.18.75-23.17c.87-10.1 1.49-17.58 4.98-26.97 3.89-10.47 7.99-20.71 10.13-31.72Zm-79.51 65.45q2.54 13.82 9.29 26.01c.26.46.22.79.14 1.29q-37.48-17.19-65.71-47.21c10.38-1.68 16.53-8.85 24.09-15.24a.53.53 0 0 1 .75.07q14.86 18.4 31.44 35.08Z"/><path fill="#35ae40" d="m593.71 526.5-4.71 2.54c-9.42-6.9-16.94-25.06-20-36q11.79-1.63 23.69-1.49a.53.53 0 0 1 .52.51q.87 17.21.5 34.44ZM633 493.04q-10.96 12.29-24.25 22l-.34-.22a.54.52 17.4 0 1-.24-.44l.33-22.24a.54.54 0 0 1 .51-.53q12.12-.54 23.99 1.43Z"/><path fill="#0179c2" d="M569 493.04c3.06 10.94 10.58 29.1 20 36q-23.5 14.54-49.75 23.25-17.29-20.71-31.76-43.51a.45.44-29.1 0 1 .19-.64q3.18-1.54 6.33-2.6 26.86-9.01 54.99-12.5Z"/><path fill="#fff" d="M633 493.04q13.4 1.01 26.39 4.16a.35.35 0 0 1 .18.57q-22.41 25.79-51.9 43.1-.43.24-.41-.24c.12-3.64-.01-23.87 1.49-25.59q13.29-9.71 24.25-22Z"/><path fill="#35ae40" d="M367.28 513.95q18.81 18.65 39.1 35.49a.58.57-54.3 0 1 .12.75q-.84 1.34-2.25 2.1-14.2-4.46-27.54-11.04c.08-.5.12-.83-.14-1.29q-6.75-12.19-9.29-26.01Z"/><path fill="#0179c2" d="M519 557.21c-23.19 5.78-48.71 6.36-72.3 4.19q-7.45-5.01-13.84-10.64a1.23 1.23 0 0 1 .06-1.89q26.03-20.29 56.17-33.72a.57.57 0 0 1 .71.2q13.98 20.73 28.81 40.8.24.31.39 1.06Z"/><path fill="#fff" d="M593.71 526.5q.11 11.01-.79 22.21a.96.93 78.8 0 1-.5.77q-19.29 10.06-39.66 17.72a.74.74 0 0 1-.83-.21l-12.68-14.7q26.25-8.71 49.75-23.25l4.71-2.54ZM519 557.21l11.95 14.71a.32.32 0 0 1-.2.52q-30.37 5.2-61.18 4.65a1.82 1.74-27.1 0 1-.93-.28q-11.23-7.26-21.94-15.41c23.59 2.17 49.11 1.59 72.3-4.19Zm-107.43 14.1a.18.18 0 0 1-.09-.28l8.33-10.72a1.03 1.03 0 0 1 1.38-.22l23.92 15.77q.4.26-.08.22c-11.1-.91-22.77-1.61-33.46-4.77Z"/><path d="M563.51 867.45c-37.67-4.79-66.91-31.92-74.52-69.21-12.26-60.06 21.34-117.66 85.03-123.85 21.19-2.05 46.12-.28 65.81 8.57a.7.69-78.5 0 1 .42.64l-.01 32.04q0 1.61-1.37.77-24.66-14.98-52.93-14.01c-36.32 1.25-62.05 26.64-64.6 62.67-3.21 45.6 22.18 81 71.91 73.97q10.62-1.51 19.49-5.95a.93.93 0 0 0 .51-.83v-41.7a.31.31 0 0 0-.31-.31h-37.19a1.75 1.74.2 0 1-1.75-1.75l.01-25.47a1.03 1.03 0 0 1 1.03-1.03h70.18a1.03 1.03 0 0 1 1.03 1.03V852a.82.81-14 0 1-.44.72q-38.68 20.28-82.3 14.73Zm258.67-81.64c-25.55-11.8-54.22-27.1-54.31-59.57-.16-54.62 75.84-60.36 112.33-46.39a2.02 2.01-79.8 0 1 1.3 1.89v29.72q0 2.33-1.94 1.03c-11.18-7.51-23.85-10.76-37.25-10.96-14.06-.22-37.68 2.91-39.6 21.22-1.37 13 7.37 20.13 17.6 25.7 8.43 4.59 20.33 9.48 28.44 14.01 17.86 9.99 36.32 23.51 40.05 45.12 4.44 25.7-8.87 47.15-33.55 55.32q-23.29 7.72-47.77 5.2c-12.77-1.32-27.57-3.91-39.03-9.96a.85.85 0 0 1-.45-.75v-31.98q0-2.05 1.63-.8c12.45 9.57 27.9 15 43.27 16.09 15.77 1.13 40.1-1.15 42.07-22.2 1.67-17.92-19.47-26.55-32.79-32.69Zm-715.39 33.03-15.56 45.82a1.24 1.24 0 0 1-1.18.84H56.58a1.24 1.24 0 0 1-1.16-1.67l69.76-186.27a1.24 1.24 0 0 1 1.16-.81h34.7a1.24 1.24 0 0 1 1.16.81l69.23 186.26a1.24 1.24 0 0 1-1.16 1.67l-33.6.01a1.24 1.24 0 0 1-1.17-.83l-16.21-45.84a1.24 1.24 0 0 0-1.17-.83h-70.15a1.24 1.24 0 0 0-1.18.84Zm62.15-28.03q.23.27.64.17a.49.49 0 0 0 .36-.65q-12.67-36.46-25.27-73.14c-.44-1.28-1.12-5.42-1.69-6.11q-.4-.49-.51.13c-.31 1.93-.54 3.77-1.19 5.64q-12.63 36.7-25.29 73.45a.39.39 0 0 0 .37.51q26.27-.15 52.58 0Z"/><rect width="34" height="188.76" x="691.5" y="676.74" rx="1.36"/><path d="M401.02 866.18c-43.52-10.85-56.77-61-40.93-98.1 13.99-32.76 46.57-44.87 80.41-40.1q10.1 1.42 19.32 5.69a.75.74-77.7 0 1 .43.68v27.74a.86.85 78.6 0 1-.52.79l-.76.32a.98.95-37.6 0 1-.96-.11c-19.48-14.57-47.65-13.71-62.49 6.83-9.27 12.83-10.9 30.86-6.29 45.84 9.41 30.56 46.48 33.76 68.73 15.71a.78.78 0 0 1 .94-.03l.67.48a1.04 1.01 18.3 0 1 .43.83v25.88a.79.78 76 0 1-.41.69c-17.47 9.71-39.09 11.71-58.57 6.86Zm-109-113.49q2.06-5.83 6.38-11.27 13.74-17.28 37.28-12.31 2.59.55 2.58 3.19l-.02 27.45a.95.95 0 0 1-1.4.83q-10.54-5.77-21.27-3.07c-20.07 5.04-24.24 28.24-24.29 45.45q-.07 30.82-.02 61.48a1.06 1.05-90 0 1-1.05 1.06h-30.18a1.03 1.03 0 0 1-1.03-1.03V731.25a1 1 0 0 1 1-1h30.22a.99.99 0 0 1 .99.97q.15 10.63-.07 21.2c0 .37-.03.58.44.59a.47.46-80.3 0 0 .44-.32Z"/></svg>